<?xml version="1.0" standalone="no"?>
<!DOCTYPE svg PUBLIC "-//W3C//DTD SVG 20010904//EN"
 "http://www.w3.org/TR/2001/REC-SVG-20010904/DTD/svg10.dtd">
<svg version="1.0" xmlns="http://www.w3.org/2000/svg"
 width="1280.000000pt" height="1280.000000pt" viewBox="0 0 1280.000000 1280.000000"
 preserveAspectRatio="xMidYMid meet">
<metadata>
Created by potrace 1.15, written by Peter Selinger 2001-2017
</metadata>
<g transform="translate(0.000000,1280.000000) scale(0.100000,-0.100000)"
fill="#ffffff" stroke="none">
<path d="M5915 12099 c-504 -53 -841 -474 -812 -1014 10 -180 68 -361 158
-491 87 -127 233 -251 364 -309 53 -23 478 -144 850 -242 246 -64 475 -67 680
-8 345 100 616 382 712 740 23 90 26 118 26 270 1 138 -3 187 -21 262 -45 196
-121 337 -260 484 -179 188 -369 281 -632 309 -113 12 -951 11 -1065 -1z"/>
<path d="M6380 8483 c-25 -10 -1567 -631 -1690 -681 -63 -26 -130 -60 -148
-76 -44 -39 -72 -96 -72 -147 0 -68 49 -291 73 -331 23 -39 669 -608 722 -636
16 -9 63 -18 104 -21 l75 -6 3 -360 c2 -198 8 -1080 13 -1960 11 -1706 11
-1671 -35 -1770 -23 -47 -86 -102 -153 -132 -81 -35 -237 -71 -397 -89 -185
-21 -239 -51 -273 -153 -14 -41 -16 -348 -3 -436 8 -52 52 -140 326 -645 174
-322 326 -596 338 -608 44 -48 96 -67 177 -65 41 1 374 31 740 67 366 36 973
95 1350 131 377 37 701 70 720 75 47 13 106 63 132 113 21 40 22 55 22 292 1
231 0 253 -19 287 -11 21 -222 268 -469 549 l-449 512 12 1801 c7 990 16 2224
20 2741 6 715 5 951 -4 987 -23 91 -46 109 -289 227 -619 301 -708 341 -761
340 -28 0 -57 -3 -65 -6z"/>
</g>
</svg>
