<?xml version="1.0"?>
<svg xmlns="http://www.w3.org/2000/svg" width="50" height="50" viewBox="0 0 50 50">
    <path fill="#ffffff" d="M 36.0625 0 C 35.1235 0 34.14125 0.55 33.40625 1.5 L 25.125 13.125 C 23.934 12.844 22.727 12.71875 21.5 12.71875 C 17.288 12.71875 13.32175 14.36575 10.34375 17.34375 C 10.15575 17.53075 10.0625 17.76625 10.0625 18.03125 C 10.0625 18.29625 10.15575 18.562 10.34375 18.75 L 31.25 39.65625 C 31.445 39.85125 31.6815 39.9375 31.9375 39.9375 C 32.1935 39.9375 32.46025 39.821 32.65625 39.625 C 36.58925 35.694 38.1505 30.02525 36.8125 24.65625 L 48.5 16.6875 C 49.376 16.0345 49.935 15.14 50 14.25 C 50.049 13.597 49.813 12.97225 49.375 12.53125 L 37.625 0.625 C 37.222 0.216 36.6595 1.2490009e-17 36.0625 0 z M 16.53125 27.75 L 0.21875 48.375 C -0.09625 48.773 -0.07775 49.36075 0.28125 49.71875 C 0.47525 49.91275 0.743 50 1 50 C 1.218 50 1.443 49.92625 1.625 49.78125 L 22.21875 33.46875 L 16.53125 27.75 z"/>
</svg>
