<?xml version="1.0"?>
<svg xmlns="http://www.w3.org/2000/svg" width="50" height="50" viewBox="0 0 50 50">
    <path fill="#ffffff" d="M 36.09375 0 C 35.19375 0 34.20625 0.5 33.40625 1.5 L 25.09375 13.09375 C 23.89375 12.79375 22.7 12.6875 21.5 12.6875 C 19.33517 12.6875 17.275331 13.160344 15.375 13.96875 L 15.34375 13.96875 L 3.5 2.09375 A 1.0001 1.0001 0 0 0 2.6875 1.78125 A 1.0001 1.0001 0 0 0 2.09375 3.5 L 13.5 14.90625 L 35.09375 36.5 L 46.5 47.90625 A 1.0001 1.0001 0 1 0 47.90625 46.5 L 36.03125 34.625 C 37.340499 31.526203 37.640455 27.999319 36.8125 24.6875 L 48.5 16.6875 C 49.4 15.9875 49.9 15.0875 50 14.1875 C 50 13.5875 49.80625 13 49.40625 12.5 L 37.59375 0.59375 C 37.19375 0.19375 36.59375 -7.4014868e-17 36.09375 0 z M 11.8125 16 C 11.3125 16.4 10.8125 16.8125 10.3125 17.3125 C 10.1125 17.5125 10 17.7 10 18 C 10 18.3 10.1125 18.4875 10.3125 18.6875 L 31.1875 39.59375 C 31.3875 39.79375 31.70625 39.90625 31.90625 39.90625 C 32.10525 39.90625 32.39475 39.79375 32.59375 39.59375 C 33.09375 39.09375 33.50525 38.59375 33.90625 38.09375 L 11.8125 16 z M 16.5 27.71875 L 0.21875 48.375 C -0.09525 48.773 -0.07775 49.36075 0.28125 49.71875 C 0.47525 49.91175 0.744 50 1 50 C 1.218 50 1.442 49.92725 1.625 49.78125 L 22.21875 33.4375 L 16.5 27.71875 z"/>
</svg>
